<svg width="360" height="199" viewBox="0 0 360 199" fill="none" xmlns="http://www.w3.org/2000/svg">
<mask id="mask0_1968_12144" style="mask-type:luminance" maskUnits="userSpaceOnUse" x="0" y="-78" width="360" height="360">
<path d="M360 -78H0V282H360V-78Z" fill="white"/>
</mask>
<g mask="url(#mask0_1968_12144)">
<path d="M263.066 164.022C265.813 164.411 275.401 164.23 280.366 146.041C285.331 127.853 307.094 135.002 307.094 135.002" stroke="#2E186A" stroke-width="1.57703" stroke-linecap="round" stroke-linejoin="round"/>
<path d="M307.577 139.39C310.101 139.39 312.147 137.343 312.147 134.819C312.147 132.294 310.101 130.248 307.577 130.248C305.052 130.248 303.006 132.294 303.006 134.819C303.006 137.343 305.052 139.39 307.577 139.39Z" fill="#FEBA91"/>
<path d="M260.459 99.9435C268.081 101.207 286.48 94.0115 282.132 76.7165C277.785 59.4215 294.73 54.7715 294.73 54.7715" stroke="#2E186A" stroke-width="1.57703" stroke-linecap="round" stroke-linejoin="round"/>
<path d="M306.416 57.6909L310.64 52.3029M301.593 53.0179L305.817 47.6299M295.561 48.1389L299.787 42.7539M288.895 43.9759L293.122 38.5879" stroke="#2E186A" stroke-width="1.57703" stroke-linecap="round" stroke-linejoin="round"/>
<path d="M307.901 57.1488L305.081 61.0938C304.781 61.5118 304.328 61.7948 303.821 61.8788C303.313 61.9628 302.793 61.8428 302.374 61.5428L285.987 49.8238C285.569 49.5248 285.286 49.0718 285.202 48.5638C285.118 48.0568 285.238 47.5358 285.538 47.1178L288.358 43.1738L307.901 57.1488Z" fill="#FEBA91"/>
<path d="M316.421 87.9154L325.292 82.1484M243.365 158.256C250.662 157.602 264.345 157.223 269.42 138.48C274.496 119.737 280.765 107.723 298.285 99.7304" stroke="#2E186A" stroke-width="1.57703" stroke-linecap="round" stroke-linejoin="round"/>
<path d="M302.478 101.8L318.267 91.5354C319.256 90.8924 319.537 89.5684 318.893 88.5794L316.518 84.9254C315.875 83.9364 314.551 83.6554 313.562 84.2984L297.773 94.5634C296.783 95.2074 296.503 96.5304 297.146 97.5204L299.522 101.173C300.165 102.163 301.488 102.443 302.478 101.8Z" fill="#49BEFF"/>
<path d="M27.002 136.25C40.8483 137.301 42.8564 142.742 46.4783 148.23C50.1003 153.718 55.3544 158.712 65.2135 152.78C71.9474 148.724 75.8953 148.54 78.5894 149.839" stroke="#2E186A" stroke-width="1.57703" stroke-linecap="round" stroke-linejoin="round"/>
<path d="M24.0298 141.362C26.5541 141.362 28.6005 139.316 28.6005 136.791C28.6005 134.267 26.5541 132.221 24.0298 132.221C21.5054 132.221 19.459 134.267 19.459 136.791C19.459 139.316 21.5054 141.362 24.0298 141.362Z" fill="#49BEFF"/>
<path d="M46.0536 50.4507L31.7096 48.9787C30.2656 48.8307 28.9748 49.8817 28.8266 51.3257L26.9007 70.0907C26.7525 71.5347 27.8029 72.8257 29.247 72.9737L43.591 74.4457C45.035 74.5937 46.3258 73.5438 46.474 72.0998L48.3999 53.3337C48.5482 51.8897 47.4977 50.5997 46.0536 50.4507Z" fill="#FEBA91"/>
<path d="M35.9447 55.1831L23.1077 53.6641M35.1851 61.6021L22.3481 60.0801M34.4229 68.0201L21.5859 66.4981M77.4181 87.8171C69.7669 76.0611 63.0277 62.1771 47.2915 62.6531" stroke="#2E186A" stroke-width="1.57703" stroke-linecap="round" stroke-linejoin="round"/>
<path d="M41.4292 49.8164L38.5801 73.8064" stroke="#2E186A" stroke-width="1.57703" stroke-linejoin="round"/>
<path d="M18.4208 111.183C18.8955 110.795 19.2752 110.303 19.5308 109.746C19.7864 109.188 19.9111 108.58 19.8953 107.967C19.8796 107.354 19.7239 106.752 19.4401 106.209C19.1563 105.665 18.7519 105.193 18.2578 104.83" stroke="#2E186A" stroke-width="1.57703" stroke-linecap="round" stroke-linejoin="round"/>
<path d="M32.2626 101.65L17.0536 103.745C14.9325 104.037 13.4498 105.993 13.7418 108.114L13.8616 108.984C14.1537 111.105 16.1099 112.588 18.2311 112.296L33.44 110.201C35.5611 109.909 37.0438 107.953 36.7518 105.832L36.632 104.962C36.34 102.841 34.3837 101.358 32.2626 101.65Z" fill="#FEBA91"/>
<path d="M16.4911 108.211L6.01172 109.654M78.7498 112.587C65.0979 104.226 53.3569 100.867 36.9925 105.672" stroke="#2E186A" stroke-width="1.57703" stroke-linecap="round" stroke-linejoin="round"/>
<path d="M262.077 11.5234L194.422 11.555L200.236 15.8944L199.894 191.568L215.665 191.489V182.216C215.664 181.639 215.777 181.067 215.997 180.534C216.218 180 216.541 179.515 216.949 179.106C217.357 178.698 217.841 178.374 218.374 178.152C218.908 177.931 219.479 177.817 220.057 177.816H249.991C250.568 177.817 251.14 177.931 251.673 178.153C252.206 178.374 252.69 178.699 253.097 179.107C253.505 179.516 253.828 180.001 254.048 180.534C254.268 181.068 254.381 181.639 254.381 182.216V191.679H268.5V17.984C268.503 17.138 268.339 16.2998 268.017 15.5173C267.696 14.7348 267.223 14.0232 266.627 13.4233C266.03 12.8234 265.321 12.3468 264.541 12.0209C263.76 11.6949 262.923 11.5259 262.077 11.5234Z" fill="#5D87FF"/>
<path d="M190.524 191.568V181.72C190.524 181.144 190.41 180.573 190.189 180.042C189.968 179.51 189.645 179.026 189.237 178.619C188.829 178.213 188.346 177.89 187.813 177.67C187.281 177.45 186.711 177.337 186.135 177.338H100.783C100.207 177.337 99.6365 177.45 99.1042 177.67C98.5719 177.89 98.0881 178.213 97.6804 178.619C97.2728 179.026 96.9493 179.51 96.7285 180.042C96.5077 180.573 96.3939 181.144 96.3935 181.72V191.518H77.5795L77.5664 18.2417C77.5671 17.4722 77.7194 16.7105 78.0147 15.9999C78.3099 15.2893 78.7423 14.6439 79.2872 14.1005C79.832 13.5572 80.4786 13.1265 81.1899 12.8332C81.9013 12.5398 82.6635 12.3895 83.433 12.3909L194.088 12.3594C194.933 12.3587 195.769 12.5245 196.55 12.8473C197.33 13.1701 198.039 13.6436 198.637 14.2407C199.234 14.8378 199.708 15.5468 200.031 16.3271C200.354 17.1074 200.52 17.9438 200.52 18.7884V191.687L190.524 191.568Z" fill="white" stroke="#2E186A" stroke-width="1.57703" stroke-linecap="round" stroke-linejoin="round"/>
<path d="M183.478 24.7461H96.0396C91.6006 24.7461 88.002 28.3451 88.002 32.7841V159.706C88.002 164.145 91.6006 167.744 96.0396 167.744H183.478C187.917 167.744 191.516 164.145 191.516 159.706V32.7841C191.516 28.3451 187.917 24.7461 183.478 24.7461Z" fill="#2E186A"/>
<path d="M200.113 86.9531H268.496V106.219H200.113V86.9531Z" fill="#2E186A"/>
<path d="M239.104 98.3616C240.086 98.3616 240.881 97.5666 240.881 96.5846C240.881 95.6036 240.086 94.8086 239.104 94.8086C238.123 94.8086 237.328 95.6036 237.328 96.5846C237.328 97.5666 238.123 98.3616 239.104 98.3616Z" fill="white"/>
<path d="M229.675 98.3616C230.656 98.3616 231.452 97.5666 231.452 96.5846C231.452 95.6036 230.656 94.8086 229.675 94.8086C228.693 94.8086 227.898 95.6036 227.898 96.5846C227.898 97.5666 228.693 98.3616 229.675 98.3616Z" fill="white"/>
<path d="M259.795 94.3105H249.102C248.551 94.3105 248.104 94.7575 248.104 95.3085V97.8635C248.104 98.4155 248.551 98.8625 249.102 98.8625H259.795C260.346 98.8625 260.792 98.4155 260.792 97.8635V95.3085C260.792 94.7575 260.346 94.3105 259.795 94.3105Z" fill="#5D87FF"/>
<path d="M219.539 94.3105H208.846C208.295 94.3105 207.848 94.7575 207.848 95.3085V97.8635C207.848 98.4155 208.295 98.8625 208.846 98.8625H219.539C220.09 98.8625 220.538 98.4155 220.538 97.8635V95.3085C220.538 94.7575 220.09 94.3105 219.539 94.3105Z" fill="#5D87FF"/>
<path d="M200.578 23.541H268.408V40.678H200.578V23.541Z" fill="#2E186A"/>
<path d="M200.73 114.354H268.466V143.108H200.73V114.354Z" fill="#2E186A"/>
<path d="M201.283 50.8906H268.409M201.283 63.8406H268.409M201.283 76.7906H268.409" stroke="white" stroke-width="1.57703" stroke-linejoin="round"/>
<path d="M185.786 24.7476H144.92C130.09 23.5096 85.9698 27.3386 83.6463 38.8956C81.3228 50.4526 105.987 55.2496 105.987 55.2496C95.8367 81.1286 104.824 90.9956 114.925 96.8806C118.342 102.987 123.274 107.597 129.193 109.76L129.125 109.928C126.015 112.649 123.56 118.36 125.445 122.842C122.087 121.56 118.466 121.125 114.9 121.574C111.333 122.023 107.933 123.343 104.997 125.418L88.1618 119.399C87.5029 119.32 86.8348 119.407 86.2176 119.651C85.6004 119.894 85.0533 120.288 84.6255 120.795C84.1977 121.302 83.9026 121.908 83.7665 122.557C83.6305 123.207 83.6578 123.88 83.846 124.516C86.3877 133.058 91.2791 138.349 95.5056 141.501C95.2951 142.878 95.1757 144.268 95.1481 145.661C95.1323 146.468 95.1271 147.252 95.1297 148.027C90.757 150.744 86.837 154.129 83.5122 158.06C81.9352 159.899 82.5055 162.478 84.0195 164.176C87.5547 168.118 95.5844 171.12 104.648 168.523H185.786C186.556 168.523 187.318 168.371 188.029 168.076C188.74 167.781 189.386 167.349 189.93 166.804C190.473 166.259 190.904 165.612 191.198 164.901C191.491 164.189 191.641 163.426 191.639 162.657V31.4206C191.639 28.1876 189.019 24.7476 185.786 24.7476Z" fill="#49BEFF"/>
<path d="M173.108 150.378C151.632 147.895 156.878 129.141 156.039 123.716C155.209 118.333 140.795 115.445 140.056 125.383C139.557 132.064 136.043 153.703 152.381 160.382" stroke="#2E186A" stroke-width="1.57703" stroke-linecap="round" stroke-linejoin="round"/>
<path d="M145.287 119.439C144.627 122.88 143.184 131.753 145 135.473M150.79 119.534C150.168 122.725 148.751 131.262 150.588 134.873" stroke="#2E186A" stroke-width="1.57703" stroke-linecap="round" stroke-linejoin="round"/>
<path d="M150.817 119.068C143.005 112.284 132.681 107.211 127.104 110.744M123.855 121.289C125.621 125.965 128.978 127.397 132.999 128.386C135.706 129.053 137.667 129.679 139.491 130.538M139.949 126.06L134.553 123.778M142.835 120.13L138.274 117.622" stroke="#2E186A" stroke-width="1.57703" stroke-linecap="round" stroke-linejoin="round"/>
<path d="M83.6113 159.766C83.6113 159.766 91.5911 167.125 102.707 160.791" stroke="#2E186A" stroke-width="1.57703" stroke-linecap="round" stroke-linejoin="round"/>
<path d="M85.9863 121.498C85.9863 121.498 87.5449 130.637 97.814 134.056" stroke="#2E186A" stroke-width="1.57703" stroke-linecap="round" stroke-linejoin="round"/>
<path d="M186.923 103.065C176.788 101.152 167.165 94.3181 165.081 70.2861C164.963 70.1841 144.075 86.1221 134.237 70.8881C127.952 59.2711 152.184 44.8091 163.814 36.9531" stroke="#2E186A" stroke-width="1.57703" stroke-linecap="round" stroke-linejoin="round"/>
<path d="M141.962 25.4336C137.494 27.7826 133.025 31.2976 128.649 35.3216C108.148 54.2136 106.526 81.4916 114.456 97.5196" stroke="#2E186A" stroke-width="1.57703" stroke-linecap="round" stroke-linejoin="round"/>
<path d="M142.377 64.025C143.569 64.025 144.535 63.059 144.535 61.867C144.535 60.675 143.569 59.709 142.377 59.709C141.185 59.709 140.219 60.675 140.219 61.867C140.219 63.059 141.185 64.025 142.377 64.025Z" fill="#2E186A"/>
<path d="M144.824 70.773C146.016 70.773 146.982 69.807 146.982 68.615C146.982 67.423 146.016 66.457 144.824 66.457C143.632 66.457 142.666 67.423 142.666 68.615C142.666 69.807 143.632 70.773 144.824 70.773Z" fill="#2E186A"/>
<path d="M152.554 72.8414C153.746 72.8414 154.712 71.8754 154.712 70.6834C154.712 69.4924 153.746 68.5254 152.554 68.5254C151.363 68.5254 150.396 69.4924 150.396 70.6834C150.396 71.8754 151.363 72.8414 152.554 72.8414Z" fill="#2E186A"/>
<path d="M151.178 66.8543C154.029 66.8543 156.34 64.5423 156.34 61.6913C156.34 58.8403 154.029 56.5293 151.178 56.5293C148.327 56.5293 146.016 58.8403 146.016 61.6913C146.016 64.5423 148.327 66.8543 151.178 66.8543Z" fill="#2E186A"/>
<path d="M94.8278 40.984C96.0196 40.984 96.9857 40.018 96.9857 38.826C96.9857 37.634 96.0196 36.668 94.8278 36.668C93.636 36.668 92.6699 37.634 92.6699 38.826C92.6699 40.018 93.636 40.984 94.8278 40.984Z" fill="#2E186A"/>
<path d="M97.3616 35.306C97.9424 35.325 98.5213 35.23 99.0652 35.025C99.6091 34.821 100.108 34.511 100.532 34.114C100.956 33.717 101.298 33.24 101.538 32.711C101.778 32.182 101.911 31.61 101.93 31.029C101.935 30.241 101.762 29.461 101.425 28.748C98.4235 29.169 95.6768 30.278 93.1588 31.143C93.1168 33.553 94.9409 35.224 97.3616 35.306ZM86.3802 35.143C86.366 35.556 86.471 35.965 86.6826 36.321C86.8942 36.676 87.2035 36.963 87.5737 37.148C87.9439 37.333 88.3594 37.407 88.7706 37.362C89.1819 37.317 89.5716 37.155 89.8934 36.895C90.2151 36.635 90.4553 36.288 90.5854 35.895C90.7154 35.503 90.7298 35.081 90.6269 34.68C90.524 34.279 90.3081 33.917 90.0048 33.635C89.7016 33.354 89.3239 33.166 88.9166 33.093C88.0234 33.596 87.1833 34.187 86.4091 34.859C86.3927 34.953 86.3831 35.048 86.3802 35.143Z" fill="#2E186A"/>
<path d="M107.737 138.46C109.506 138.174 110.793 137.033 110.612 135.912C110.431 134.791 108.85 134.113 107.081 134.399C105.312 134.685 104.025 135.827 104.206 136.948C104.387 138.069 105.968 138.745 107.737 138.46Z" fill="#2E186A"/>
<path d="M111.662 153.458C113.427 153.177 114.713 152.043 114.535 150.925C114.357 149.807 112.782 149.128 111.017 149.409C109.253 149.69 107.967 150.824 108.145 151.943C108.323 153.061 109.898 153.739 111.662 153.458Z" fill="#2E186A"/>
<path d="M115.442 135.708L119.33 138.157C119.462 138.241 119.576 138.35 119.665 138.478C119.754 138.607 119.817 138.752 119.849 138.905C119.881 139.058 119.881 139.216 119.851 139.369C119.82 139.523 119.759 139.668 119.671 139.798L117.332 143.246C117.207 143.431 117.031 143.576 116.825 143.663C116.619 143.751 116.393 143.778 116.172 143.74C115.952 143.702 115.747 143.602 115.582 143.451C115.417 143.3 115.299 143.105 115.243 142.888L113.692 136.99C113.631 136.764 113.641 136.524 113.718 136.303C113.796 136.082 113.939 135.889 114.129 135.751C114.318 135.612 114.544 135.534 114.779 135.526C115.013 135.518 115.245 135.582 115.442 135.708Z" fill="#2E186A"/>
<path d="M123.384 141.793C128.378 138.361 122.332 138.213 119.102 138.639C121.925 137.588 126.057 134.655 121.623 133.984" stroke="#2E186A" stroke-width="1.57703" stroke-linecap="round" stroke-linejoin="round"/>
<path d="M111.985 102.421C109.018 108.971 108.269 119.137 115.373 130.545M123.009 101.756C118.611 107.638 115.846 117.455 120.275 129.948" stroke="white" stroke-width="1.57703" stroke-linecap="round" stroke-linejoin="round"/>
<path d="M128.924 178.978C124.588 175.133 118.915 163.734 120.55 151.906M139.254 175.091C134.194 172.268 126.209 162.364 125.263 150.463" stroke="#2E186A" stroke-width="1.57703" stroke-linecap="round" stroke-linejoin="round"/>
<path d="M359.212 191.643H0.789062" stroke="#2E186A" stroke-width="1.57703" stroke-linecap="round" stroke-linejoin="round"/>
</g>
</svg>
