<svg width="24" height="24" viewBox="0 0 24 24" fill="none" xmlns="http://www.w3.org/2000/svg">
<path d="M21.25 21H2.75C2.02082 20.9995 1.32165 20.7096 0.806041 20.194C0.290431 19.6783 0.000529737 18.9792 0 18.25L0 5.75C0.000529737 5.02082 0.290431 4.32165 0.806041 3.80604C1.32165 3.29043 2.02082 3.00053 2.75 3H8C8.199 3 8.39 3.079 8.53 3.22L10.311 5H21.25C21.9792 5.00053 22.6783 5.29043 23.194 5.80604C23.7096 6.32165 23.9995 7.02082 24 7.75V18.25C23.9995 18.9792 23.7096 19.6783 23.194 20.194C22.6783 20.7096 21.9792 20.9995 21.25 21Z" fill="#03A9F4"/>
<path d="M11.5 16C11.3011 16 11.1103 15.921 10.9697 15.7803C10.829 15.6397 10.75 15.4489 10.75 15.25V10.75C10.75 10.5511 10.829 10.3603 10.9697 10.2197C11.1103 10.079 11.3011 10 11.5 10C11.6989 10 11.8897 10.079 12.0303 10.2197C12.171 10.3603 12.25 10.5511 12.25 10.75V15.25C12.25 15.4489 12.171 15.6397 12.0303 15.7803C11.8897 15.921 11.6989 16 11.5 16ZM8.24999 16H5.74999C5.61924 16.0005 5.49066 15.9667 5.37706 15.9019C5.26345 15.8372 5.1688 15.7438 5.10253 15.6311C5.03626 15.5184 5.00069 15.3903 4.99937 15.2596C4.99804 15.1288 5.03101 15 5.09499 14.886L6.97599 11.5H5.74999C5.55108 11.5 5.36031 11.421 5.21966 11.2803C5.07901 11.1397 4.99999 10.9489 4.99999 10.75C4.99999 10.5511 5.07901 10.3603 5.21966 10.2197C5.36031 10.079 5.55108 10 5.74999 10H8.24999C8.38074 9.99954 8.50932 10.0334 8.62293 10.0981C8.73653 10.1628 8.83119 10.2562 8.89745 10.3689C8.96372 10.4816 8.99929 10.6097 9.00061 10.7404C9.00194 10.8712 8.96897 11 8.90499 11.114L7.02399 14.5H8.24999C8.4489 14.5 8.63967 14.579 8.78032 14.7197C8.92097 14.8603 8.99999 15.0511 8.99999 15.25C8.99999 15.4489 8.92097 15.6397 8.78032 15.7803C8.63967 15.921 8.4489 16 8.24999 16ZM14.75 16C14.5511 16 14.3603 15.921 14.2197 15.7803C14.079 15.6397 14 15.4489 14 15.25V10.75C14 10.5511 14.079 10.3603 14.2197 10.2197C14.3603 10.079 14.5511 10 14.75 10H16C17.103 10 18 10.897 18 12C18 13.103 17.103 14 16 14H15.5V15.25C15.5 15.4489 15.421 15.6397 15.2803 15.7803C15.1397 15.921 14.9489 16 14.75 16ZM15.5 12.5H16C16.275 12.5 16.5 12.275 16.5 12C16.5 11.725 16.275 11.5 16 11.5H15.5V12.5Z" fill="white"/>
</svg>
